<?xml version="1.0" encoding="UTF-8"?><svg id="Layer_2" xmlns="http://www.w3.org/2000/svg" viewBox="0 0 370.26 312.06"><defs><style>.cls-1{fill:#020203;}</style></defs><g id="Layer_1-2"><g><path class="cls-1" d="M210.78,214.11c0,5.13,5.13,10.26,10.26,10.26v6.41h-48.72v-96.67c0-14.62-7.69-22.05-20.77-22.05-7.44,0-15.13,4.87-20.51,11.28,.77,3.33,1.28,6.92,1.28,10.77v80c0,5.13,5.13,10.26,10.26,10.26v6.41h-48.72v-96.67c0-14.62-7.69-22.05-20.77-22.05-6.92,0-13.85,4.1-19.23,10v92.06c0,5.13,5.13,10.26,10.26,10.26v6.41H15.39V116.66c0-5.13-5.13-10.26-10.26-10.26v-6.41H53.85v11.28c8.72-7.95,21.8-14.87,36.67-14.87s30.51,5.38,37.69,19.23c8.46-9.74,23.33-19.23,40.77-19.23,20.26,0,41.8,10,41.8,37.69v80Z"/><path class="cls-1" d="M295.9,307.7c-49.49,0-65.64-22.82-65.9-46.41-.26-7.95,1.54-15.9,4.36-22.31l33.08,17.44c-6.92,15.13-3.33,42.82,28.46,42.82,26.41,0,41.03-24.36,40.52-46.41-.51-14.36-7.44-26.41-22.05-26.41-22.82,0-32.31,15.13-51.29,15.13-7.18,0-27.95-3.08-27.95-25.13s16.15-30.51,30.26-36.92c-14.36-8.21-23.08-21.8-23.08-37.44,0-25.64,23.85-45.64,56.93-45.64,8.46,0,16.15,1.28,23.08,3.59h36.41v6.41c-5.13,0-10.26,5.13-10.26,10.26v1.8c4.87,6.92,7.69,14.87,7.69,23.59,0,25.9-23.85,45.64-56.93,45.64-9.23,0-17.69-1.54-25.39-4.36-25.9,9.23-23.33,32.57-10.77,32.57,14.87,0,28.98-18.98,51.29-18.98,34.62,0,52.82,25.13,53.34,51.8,.51,30.26-22.31,58.98-71.8,58.98Zm-20.77-165.65c0,23.59,10.77,39.75,24.1,39.75s24.1-16.15,24.1-39.75-10.77-39.49-24.1-39.49-24.1,16.15-24.1,39.49Z"/></g></g></svg>