<?xml version="1.0" encoding="UTF-8"?><svg id="Layer_2" xmlns="http://www.w3.org/2000/svg" viewBox="0 0 941.45 489.77"><defs><style>.cls-1{fill:#fff;}</style></defs><g id="Layer_1-2"><g><path class="cls-1" d="M189.53,192.53c0,4.61,4.61,9.22,9.22,9.22v5.76h-43.81V120.59c0-13.14-6.92-19.83-18.68-19.83-6.69,0-13.6,4.38-18.45,10.15,.69,3,1.15,6.23,1.15,9.68v71.94c0,4.61,4.61,9.22,9.22,9.22v5.76h-43.81V120.59c0-13.14-6.92-19.83-18.68-19.83-6.23,0-12.45,3.69-17.29,8.99v82.78c0,4.61,4.61,9.22,9.22,9.22v5.76H13.83V104.92c0-4.61-4.61-9.22-9.22-9.22v-5.76H48.42v10.15c7.84-7.15,19.6-13.37,32.97-13.37s27.44,4.84,33.89,17.29c7.61-8.76,20.98-17.29,36.66-17.29,18.22,0,37.58,8.99,37.58,33.9v71.94Z"/><path class="cls-1" d="M331.8,153.57c1.38,4.61,1.61,8.53,1.61,11.99,0,28.59-26.75,45.19-59.95,45.19-36.43,0-63.18-27.21-63.18-62.03,0-37.12,26.75-62.02,68.02-62.02,26.29,0,52.11,13.14,52.11,38.28,0,47.73-84.85,19.6-80.7,51.65,3.46,16.6,11.07,26.29,23.75,28.59,18.68,2.31,30.21-21.21,25.59-39.89l32.74-11.76Zm-91.31-24.9v0Zm6.69,20.06c0,4.84,.23,9.45,.46,13.6,8.07-13.14,50.96-19.37,50.96-45.19,0-12.91-6.92-24.9-20.52-24.9-19.6,0-30.9,22.37-30.9,56.49Z"/><path class="cls-1" d="M448.47,173.17c0,26.05-20.06,37.58-51.19,37.58-15.22,0-33.43-1.15-52.34-3.23v-41.73h10.84c0,17.52,16.6,39.43,41.5,39.43,12.45,0,23.52-9.92,23.52-22.14,0-30.9-74.01-19.83-74.01-62.95,0-21.44,17.06-33.43,47.5-33.43,15.22,0,26.52,1.15,45.42,3.23v41.73h-10.84c0-17.52-9.68-39.43-34.59-39.43-6.69,0-19.37,3.92-19.37,17.06,0,23.75,73.55,22.37,73.55,63.87Z"/><path class="cls-1" d="M572.3,195.53c2.31,3.92,3.46,6.23,8.07,6.23v5.76h-37.58l-26.75-42.43c-7.38,3.69-12.91,8.3-14.53,15.22v12.22c0,4.61,4.61,9.22,9.22,9.22v5.76h-43.81V38.05c0-4.61-4.61-9.22-9.22-9.22v-5.76h43.81V107.45c6.92-9.91,21.91-20.75,39.43-20.75s37.58,8.99,37.58,33.9c0,19.37-15.22,27.44-32.28,33.43l26.06,41.5Zm-70.79-27.9c7.15-13.14,40.35-24.67,40.35-47.04,0-12.22-5.76-19.83-16.6-19.83-9.91,0-20.06,9.45-23.75,19.14v47.73Z"/><path class="cls-1" d="M708.57,192.53c0,4.61,4.61,9.22,9.22,9.22v5.76h-43.81V120.59c0-13.14-6.92-19.83-18.68-19.83-8.53,0-17.29,7.15-21.9,15.22v76.55c0,4.61,4.61,9.22,9.22,9.22v5.76h-43.81V38.05c0-4.61-4.61-9.22-9.22-9.22v-5.76h43.81V104.92c7.61-8.99,21.44-18.22,37.58-18.22,18.21,0,37.58,8.99,37.58,33.9v71.94Z"/><path class="cls-1" d="M770.82,192.53c0,4.61,4.61,9.22,9.22,9.22v5.76h-43.81V104.92c0-4.61-4.61-9.22-9.22-9.22v-5.76h43.81v102.61Zm-39.2-142.03c0-10.15,8.3-18.45,18.45-18.45s18.45,8.3,18.45,18.45-8.3,18.45-18.45,18.45-18.45-8.3-18.45-18.45Z"/><path class="cls-1" d="M62.72,485.85c-44.5,0-59.03-20.52-59.26-41.73-.23-7.15,1.38-14.3,3.92-20.06l29.74,15.68c-6.23,13.6-3,38.51,25.59,38.51,23.75,0,36.89-21.9,36.43-41.73-.46-12.91-6.69-23.75-19.83-23.75-20.52,0-29.05,13.6-46.11,13.6-6.46,0-25.13-2.77-25.13-22.6s14.53-27.44,27.21-33.2c-12.91-7.38-20.75-19.6-20.75-33.66,0-23.06,21.44-41.04,51.19-41.04,7.61,0,14.53,1.15,20.75,3.23h32.74v5.76c-4.61,0-9.22,4.61-9.22,9.22v1.61c4.38,6.23,6.92,13.37,6.92,21.21,0,23.29-21.44,41.04-51.19,41.04-8.3,0-15.91-1.38-22.83-3.92-23.29,8.3-20.98,29.28-9.68,29.28,13.37,0,26.05-17.06,46.11-17.06,31.13,0,47.5,22.6,47.96,46.58,.46,27.21-20.06,53.03-64.56,53.03Zm-18.68-148.95c0,21.21,9.68,35.74,21.67,35.74s21.67-14.53,21.67-35.74-9.68-35.51-21.67-35.51-21.67,14.53-21.67,35.51Z"/><path class="cls-1" d="M178.01,314.3c13.37-15.45,29.74-20.75,47.96-17.52v41.5h-10.84c0-35.51-24.9-33.2-37.12-13.14v76.55c0,4.61,4.61,9.22,9.22,9.22v5.76h-43.81v-102.61c0-4.61-4.61-9.22-9.22-9.22v-5.76h43.81v15.22Z"/><path class="cls-1" d="M352.32,401.69c0,4.61,4.61,9.22,9.22,9.22v5.76h-43.81v-18.91c-6.46,10.38-21.9,22.14-40.35,22.14s-37.58-8.99-37.58-33.9c0-44.73,82.55-29.74,77.24-67.33-1.61-11.76-9.92-17.29-21.67-17.29-24.9,0-32.28,21.91-32.28,39.43h-10.84v-41.73c18.91-2.08,27.9-3.23,43.12-3.23,40.58,0,56.95,24.44,56.95,61.79v44.04Zm-34.59-17.99v-26.05c0-.69,.23-10.84,0-20.98-4.15,14.3-41.27,25.59-41.27,49.34,0,12.22,5.76,19.83,16.6,19.83s22.37-11.76,24.67-22.14Z"/><path class="cls-1" d="M499.66,357.88c0,24.44-8.76,62.03-44.73,62.03-22.37,0-34.82-14.53-40.35-21.91v70.79c0,4.61,4.61,9.22,9.22,9.22v5.76h-43.81v-169.7c0-4.61-4.61-9.22-9.22-9.22v-5.76h43.81v18.91c6.46-10.38,21.9-22.13,40.35-22.13,39.43,0,44.73,37.12,44.73,62.02Zm-36.89,0c0-12.22-1.38-47.96-23.52-47.96-10.84,0-22.37,11.76-24.67,22.14v52.34c7.15,13.14,20.29,24.44,29.28,24.44,13.6,0,18.91-24.67,18.91-50.96Z"/><path class="cls-1" d="M630.17,401.69c0,4.61,4.61,9.22,9.22,9.22v5.76h-43.81v-86.93c0-13.14-6.92-19.83-18.68-19.83-8.53,0-17.29,7.15-21.9,15.22v76.55c0,4.61,4.61,9.22,9.22,9.22v5.76h-43.81V247.2c0-4.61-4.61-9.22-9.22-9.22v-5.76h43.81v81.85c7.61-8.99,21.44-18.21,37.58-18.21,18.21,0,37.58,8.99,37.58,33.89v71.94Z"/><path class="cls-1" d="M692.43,401.69c0,4.61,4.61,9.22,9.22,9.22v5.76h-43.81v-102.61c0-4.61-4.61-9.22-9.22-9.22v-5.76h43.81v102.61Zm-39.2-142.03c0-10.15,8.3-18.45,18.45-18.45s18.45,8.3,18.45,18.45-8.3,18.45-18.45,18.45-18.45-8.3-18.45-18.45Z"/><path class="cls-1" d="M750.07,357.88c0,34.12,11.76,56.49,31.59,56.49,21.21,0,29.28-21.9,29.28-39.43h10.84v41.73c-18.91,2.08-24.9,3.23-40.12,3.23-41.27,0-68.48-24.9-68.48-62.03s27.21-62.02,68.48-62.02c15.22,0,21.21,1.15,40.12,3.23v41.73h-10.84c0-17.52-8.07-39.43-29.28-39.43-19.83,0-31.59,22.37-31.59,56.49Z"/><path class="cls-1" d="M936.84,382.32c0,26.05-20.06,37.58-51.19,37.58-15.22,0-33.43-1.15-52.34-3.23v-41.73h10.84c0,17.52,16.6,39.43,41.5,39.43,12.45,0,23.52-9.92,23.52-22.14,0-30.9-74.01-19.83-74.01-62.95,0-21.44,17.06-33.43,47.5-33.43,15.22,0,26.52,1.15,45.42,3.23v41.73h-10.84c0-17.52-9.68-39.43-34.59-39.43-6.69,0-19.37,3.92-19.37,17.06,0,23.75,73.55,22.37,73.55,63.87Z"/></g></g></svg>